# xmcd
#
# Track frame offsets:
#	150
#	6387
#	19983
#	36310
#	52907
#	66121
#	79073
#	95191
#	107496
#	120804
#	125103
#	138844
#	153048
#	167720
#	180687
#
# Disc length: 2513 seconds
#
# Revision: 1
# Processed by: cddbd v1.5.2PL0 Copyright (c) Steve Scherf et al.
# Submitted via: audiograbber 1.83.01
#
DISCID=bf09cf0f
DTITLE=Baba Saad - Saadcore Reloaded
DYEAR=2015
DGENRE=Gangsta
TTITLE0=Saadcore Reloaded
TTITLE1=Strassenpolitik Reloaded
TTITLE2=Silber oder Blei (feat. PA Sports and Kianush)
TTITLE3=Der Pate kommt!
TTITLE4=Aussage verweigert
TTITLE5=Saad Capone Reloaded
TTITLE6=Jeder Tropfen (feat. Kontra K)
TTITLE7=Hasst oder Hast
TTITLE8=La Familia Reloaded (feat. Punch Arogunz)
TTITLE9=Asoziale Bars
TTITLE10=Schädelbasisbruch (feat. Blokkmonsta)
TTITLE11=Ich schiess Reloaded
TTITLE12=Alles wurde gut
TTITLE13=Kopf durch die Wand 2 (feat. JokA)
TTITLE14=Rap will ficken, doch...
EXTD=
EXTT0=
EXTT1=
EXTT2=
EXTT3=
EXTT4=
EXTT5=
EXTT6=
EXTT7=
EXTT8=
EXTT9=
EXTT10=
EXTT11=
EXTT12=
EXTT13=
EXTT14=
PLAYORDER=
